<?xml version="1.0" encoding="UTF-8"?>
<!-- Created with Inkscape (http://www.inkscape.org/) -->
<svg width="94.089mm" height="112.12mm" version="1.1" viewBox="0 0 94.089 112.12" xml:space="preserve" xmlns="http://www.w3.org/2000/svg"><defs><filter id="filter5490" x="-.27192" y="-.19695" width="1.5565" height="1.4727" color-interpolation-filters="sRGB"><feFlood flood-color="rgb(0,0,0)" flood-opacity=".49804" result="flood"/><feComposite in="flood" in2="SourceGraphic" operator="in" result="composite1"/><feGaussianBlur in="composite1" result="blur" stdDeviation="6.24751"/><feOffset dx="0.7" dy="6" result="offset"/><feComposite in="SourceGraphic" in2="offset" result="composite2"/></filter><filter id="filter13979" x="-.098961" y="-.086904" width="1.1825" height="1.2342" color-interpolation-filters="sRGB"><feFlood flood-color="rgb(0,0,0)" flood-opacity=".17647" result="flood"/><feComposite in="flood" in2="SourceGraphic" operator="in" result="composite1"/><feGaussianBlur in="composite1" result="blur" stdDeviation="0.9"/><feOffset dx="-0.4" dy="1.5" result="offset"/><feComposite in="SourceGraphic" in2="offset" result="composite2"/></filter></defs><g transform="translate(-15.449 -176.49)"><path x="16.159521" y="183.61382" width="92.81546" height="92.81546" d="m24.097 183.61h76.94a7.9375 7.9375 45 0 1 7.9375 7.9375v76.94a7.9375 7.9375 135 0 1-7.9375 7.9375h-76.94a7.9375 7.9375 45 0 1-7.9375-7.9375v-76.94a7.9375 7.9375 135 0 1 7.9375-7.9375z" fill="#08a" stroke-width=".26458"/><path d="m30.443 191.48v76.13h55.141v-51.676l-25.539-24.454z" fill="#f9f9f9" filter="url(#filter5490)" stroke-width=".29795"/><path transform="matrix(.97651 0 0 1.0093 23.533 77.329)" d="m63.184 137.67-25.753-24.673 0.2255 24.712c-3.1876 0.31219 16.756 0.0266 25.527-0.0384z" fill="#f9f9f9" filter="url(#filter13979)" stroke-width=".26458"/><g transform="matrix(.15071 0 0 .17685 14.237 185.65)"><g fill="none"><g stroke-linecap="round"><path d="m80 460q38.5-23 65-30" color="#0b0b0b" dominant-baseline="auto" stroke="#6b4226" stroke-width="30px"/><path d="m145 430q24-11 60-38" color="#0b0b0b" dominant-baseline="auto" stroke="#6b4226" stroke-width="27px"/><path d="m205 392q33.5-29 55-42" color="#0b0b0b" dominant-baseline="auto" stroke="#714a2a" stroke-width="24px"/><path d="m260 350q20-13 52-42" color="#0b0b0b" dominant-baseline="auto" stroke="#77502e" stroke-width="21px"/><path d="m312 308q34-30 56-44" color="#0b0b0b" dominant-baseline="auto" stroke="#7d5632" stroke-width="17px"/><path d="m368 264q20-14 52-44" color="#0b0b0b" dominant-baseline="auto" stroke="#835c36" stroke-width="14px"/><path d="m420 220q30-30 48-44" color="#0b0b0b" dominant-baseline="auto" stroke="#89623a" stroke-width="11px"/><path d="m468 176q17.5-14 47-44" color="#0b0b0b" dominant-baseline="auto" stroke="#8f683e" stroke-width="8px"/><path d="m515 132q28.5-28 45-40" color="#0b0b0b" dominant-baseline="auto" stroke="#957045" stroke-width="5px"/><path d="m312 308q-26-16-40-46" color="#0b0b0b" dominant-baseline="auto" stroke="#6f4a2c" stroke-width="14px"/><path d="m272 262q-11-32-34-50" color="#0b0b0b" dominant-baseline="auto" stroke="#75502f" stroke-width="11px"/><path d="m238 212q-21-15-30-44" color="#0b0b0b" dominant-baseline="auto" stroke="#7b5633" stroke-width="8px"/><path d="m208 168q-6.5-29-25-44" color="#0b0b0b" dominant-baseline="auto" stroke="#815c37" stroke-width="5px"/><path d="m368 264q26 9 40 34" color="#0b0b0b" dominant-baseline="auto" stroke="#7d5632" stroke-width="8px"/><path d="m408 298q12.5 19 37 22" color="#0b0b0b" dominant-baseline="auto" stroke="#855c38" stroke-width="5px"/><path d="m74 452q32-14 65-30 30-18 60-38 27-20 55-42 26-21 52-42" color="#0b0b0b" dominant-baseline="auto" opacity=".4" stroke="#b98a5c" stroke-width="4px"/></g><g><path d="m133 420q12 14-2 22" color="#0b0b0b" dominant-baseline="auto" opacity=".5" stroke="#4a2f1c" stroke-width="1.5px"/><path d="m247 341q13 15-2 22" color="#0b0b0b" dominant-baseline="auto" opacity=".5" stroke="#4a2f1c" stroke-width="1.5px"/><path d="m355 256q13 14-2 21" color="#0b0b0b" dominant-baseline="auto" opacity=".45" stroke="#5a3a22" stroke-width="1.3px"/><path d="m227 205q11 13-2 19" color="#0b0b0b" dominant-baseline="auto" opacity=".45" stroke="#4a2f1c" stroke-width="1.2px"/></g></g><ellipse transform="rotate(-20,160,418)" cx="160" cy="418" rx="2.2" ry="1.3" color="#0b0b0b" dominant-baseline="auto" fill="#c9a679" opacity=".55"/><ellipse transform="rotate(15,232,372)" cx="232" cy="372" rx="2" ry="1.2" color="#0b0b0b" dominant-baseline="auto" fill="#c9a679" opacity=".5"/><ellipse transform="rotate(-10,298,313)" cx="298" cy="313" rx="1.8" ry="1.1" color="#0b0b0b" dominant-baseline="auto" fill="#d4b389" opacity=".5"/><ellipse transform="rotate(20,388,248)" cx="388" cy="248" rx="1.6" ry="1" color="#0b0b0b" dominant-baseline="auto" fill="#d4b389" opacity=".5"/><ellipse transform="rotate(-15,448,196)" cx="448" cy="196" rx="1.5" ry=".9" color="#0b0b0b" dominant-baseline="auto" fill="#dbbd94" opacity=".5"/><g><g transform="matrix(.65532 -.45886 .45886 .65532 536 98)" color="#0b0b0b" dominant-baseline="auto"><path d="m0 0c-9-9-10-23 0-33 10 10 9 24 0 33z" color="#0b0b0b" dominant-baseline="auto" fill="#8bb35c"/><path d="m0-3v-27" color="#0b0b0b" dominant-baseline="auto" opacity=".45" stroke="#24361f" stroke-width="1px"/></g><g transform="matrix(0 -.9 .9 0 544 112)" color="#0b0b0b" dominant-baseline="auto"><path d="m0 0c-9-9-10-23 0-33 10 10 9 24 0 33z" color="#0b0b0b" dominant-baseline="auto" fill="#2f5233"/><path d="m0-3v-27" color="#0b0b0b" dominant-baseline="auto" opacity=".45" stroke="#24361f" stroke-width="1px"/></g><g transform="matrix(.63093 -.90107 .90107 .63093 552 102)" color="#0b0b0b" dominant-baseline="auto"><path d="m0 0c-9-9-10-23 0-33 10 10 9 24 0 33z" color="#0b0b0b" dominant-baseline="auto" fill="#2f5233"/><path d="m0-3v-27" color="#0b0b0b" dominant-baseline="auto" opacity=".45" stroke="#24361f" stroke-width="1px"/></g><g transform="matrix(1.1591 -.31058 .31058 1.1591 560 90)" color="#0b0b0b" dominant-baseline="auto"><path d="m0 0c-9-9-10-23 0-33 10 10 9 24 0 33z" color="#0b0b0b" dominant-baseline="auto" fill="#4f7942"/><path d="m0-3v-27" color="#0b0b0b" dominant-baseline="auto" opacity=".45" stroke="#24361f" stroke-width="1px"/></g><g transform="rotate(20 34.464 1654.6)" color="#0b0b0b" dominant-baseline="auto"><path d="m0 0c-9-9-10-23 0-33 10 10 9 24 0 33z" color="#0b0b0b" dominant-baseline="auto" fill="#6f9950"/><path d="m0-3v-27" color="#0b0b0b" dominant-baseline="auto" opacity=".45" stroke="#24361f" stroke-width="1px"/></g><g transform="matrix(.63093 .90107 -.90107 .63093 574 98)" color="#0b0b0b" dominant-baseline="auto"><path d="m0 0c-9-9-10-23 0-33 10 10 9 24 0 33z" color="#0b0b0b" dominant-baseline="auto" fill="#4f7942"/><path d="m0-3v-27" color="#0b0b0b" dominant-baseline="auto" opacity=".45" stroke="#24361f" stroke-width="1px"/></g><g transform="matrix(.65532 .45886 -.45886 .65532 202 130)" color="#0b0b0b" dominant-baseline="auto"><path d="m0 0c-9-9-10-23 0-33 10 10 9 24 0 33z" color="#0b0b0b" dominant-baseline="auto" fill="#8bb35c"/><path d="m0-3v-27" color="#0b0b0b" dominant-baseline="auto" opacity=".45" stroke="#24361f" stroke-width="1px"/></g><g transform="matrix(-.22 -.82104 .82104 -.22 170 122)" color="#0b0b0b" dominant-baseline="auto"><path d="m0 0c-9-9-10-23 0-33 10 10 9 24 0 33z" color="#0b0b0b" dominant-baseline="auto" fill="#2f5233"/><path d="m0-3v-27" color="#0b0b0b" dominant-baseline="auto" opacity=".45" stroke="#24361f" stroke-width="1px"/></g><g transform="matrix(-.77819 -.5449 .5449 -.77819 178 134)" color="#0b0b0b" dominant-baseline="auto"><path d="m0 0c-9-9-10-23 0-33 10 10 9 24 0 33z" color="#0b0b0b" dominant-baseline="auto" fill="#2f5233"/><path d="m0-3v-27" color="#0b0b0b" dominant-baseline="auto" opacity=".45" stroke="#24361f" stroke-width="1px"/></g><g transform="matrix(.39332 -1.0806 1.0806 .39332 185 122)" color="#0b0b0b" dominant-baseline="auto"><path d="m0 0c-9-9-10-23 0-33 10 10 9 24 0 33z" color="#0b0b0b" dominant-baseline="auto" fill="#4f7942"/><path d="m0-3v-27" color="#0b0b0b" dominant-baseline="auto" opacity=".45" stroke="#24361f" stroke-width="1px"/></g><g transform="matrix(.90933 -.525 .525 .90933 193 116)" color="#0b0b0b" dominant-baseline="auto"><path d="m0 0c-9-9-10-23 0-33 10 10 9 24 0 33z" color="#0b0b0b" dominant-baseline="auto" fill="#6f9950"/><path d="m0-3v-27" color="#0b0b0b" dominant-baseline="auto" opacity=".45" stroke="#24361f" stroke-width="1px"/></g><g transform="matrix(.9 0 0 .9 200 128)" color="#0b0b0b" dominant-baseline="auto"><path d="m0 0c-9-9-10-23 0-33 10 10 9 24 0 33z" color="#0b0b0b" dominant-baseline="auto" fill="#4f7942"/><path d="m0-3v-27" color="#0b0b0b" dominant-baseline="auto" opacity=".45" stroke="#24361f" stroke-width="1px"/></g><g transform="matrix(-.57453 .48209 -.48209 -.57453 438 312)" color="#0b0b0b" dominant-baseline="auto"><path d="m0 0c-9-9-10-23 0-33 10 10 9 24 0 33z" color="#0b0b0b" dominant-baseline="auto" fill="#2f5233"/><path d="m0-3v-27" color="#0b0b0b" dominant-baseline="auto" opacity=".45" stroke="#24361f" stroke-width="1px"/></g><g transform="matrix(-.88633 .15628 -.15628 -.88633 445 322)" color="#0b0b0b" dominant-baseline="auto"><path d="m0 0c-9-9-10-23 0-33 10 10 9 24 0 33z" color="#0b0b0b" dominant-baseline="auto" fill="#4f7942"/><path d="m0-3v-27" color="#0b0b0b" dominant-baseline="auto" opacity=".45" stroke="#24361f" stroke-width="1px"/></g><g transform="matrix(-.75175 -.27362 .27362 -.75175 452 314)" color="#0b0b0b" dominant-baseline="auto"><path d="m0 0c-9-9-10-23 0-33 10 10 9 24 0 33z" color="#0b0b0b" dominant-baseline="auto" fill="#6f9950"/><path d="m0-3v-27" color="#0b0b0b" dominant-baseline="auto" opacity=".45" stroke="#24361f" stroke-width="1px"/></g><g transform="matrix(-.44995 -.53623 .53623 -.44995 412 226)" color="#0b0b0b" dominant-baseline="auto"><path d="m0 0c-9-9-10-23 0-33 10 10 9 24 0 33z" color="#0b0b0b" dominant-baseline="auto" fill="#2f5233"/><path d="m0-3v-27" color="#0b0b0b" dominant-baseline="auto" opacity=".45" stroke="#24361f" stroke-width="1px"/></g><g transform="matrix(-.13892 -.78785 .78785 -.13892 404 218)" color="#0b0b0b" dominant-baseline="auto"><path d="m0 0c-9-9-10-23 0-33 10 10 9 24 0 33z" color="#0b0b0b" dominant-baseline="auto" fill="#4f7942"/><path d="m0-3v-27" color="#0b0b0b" dominant-baseline="auto" opacity=".45" stroke="#24361f" stroke-width="1px"/></g><g transform="matrix(.22231 -.6108 .6108 .22231 414 210)" color="#0b0b0b" dominant-baseline="auto"><path d="m0 0c-9-9-10-23 0-33 10 10 9 24 0 33z" color="#0b0b0b" dominant-baseline="auto" fill="#6f9950"/><path d="m0-3v-27" color="#0b0b0b" dominant-baseline="auto" opacity=".45" stroke="#24361f" stroke-width="1px"/></g><g transform="matrix(-.56292 -.325 .325 -.56292 230 218)" color="#0b0b0b" dominant-baseline="auto"><path d="m0 0c-9-9-10-23 0-33 10 10 9 24 0 33z" color="#0b0b0b" dominant-baseline="auto" fill="#4f7942"/><path d="m0-3v-27" color="#0b0b0b" dominant-baseline="auto" opacity=".45" stroke="#24361f" stroke-width="1px"/></g><g transform="matrix(-.25652 -.70477 .70477 -.25652 242 206)" color="#0b0b0b" dominant-baseline="auto"><path d="m0 0c-9-9-10-23 0-33 10 10 9 24 0 33z" color="#0b0b0b" dominant-baseline="auto" fill="#2f5233"/><path d="m0-3v-27" color="#0b0b0b" dominant-baseline="auto" opacity=".45" stroke="#24361f" stroke-width="1px"/></g><g transform="matrix(-.56292 .325 -.325 -.56292 252 356)" color="#0b0b0b" dominant-baseline="auto"><path d="m0 0c-9-9-10-23 0-33 10 10 9 24 0 33z" color="#0b0b0b" dominant-baseline="auto" fill="#6f9950"/><path d="m0-3v-27" color="#0b0b0b" dominant-baseline="auto" opacity=".45" stroke="#24361f" stroke-width="1px"/></g><g transform="matrix(.25357 .54378 -.54378 .25357 475 182)" color="#0b0b0b" dominant-baseline="auto"><path d="m0 0c-9-9-10-23 0-33 10 10 9 24 0 33z" color="#0b0b0b" dominant-baseline="auto" fill="#4f7942"/><path d="m0-3v-27" color="#0b0b0b" dominant-baseline="auto" opacity=".45" stroke="#24361f" stroke-width="1px"/></g><g transform="matrix(-.59088 -.10419 .10419 -.59088 300 312)" color="#0b0b0b" dominant-baseline="auto"><path d="m0 0c-9-9-10-23 0-33 10 10 9 24 0 33z" color="#0b0b0b" dominant-baseline="auto" fill="#2f5233"/><path d="m0-3v-27" color="#0b0b0b" dominant-baseline="auto" opacity=".45" stroke="#24361f" stroke-width="1px"/></g></g><ellipse transform="rotate(-30,505,140)" cx="505" cy="140" rx="3" ry="5.5" color="#0b0b0b" dominant-baseline="auto" fill="#a6473b"/><ellipse transform="rotate(200 255 235)" cx="255" cy="235" rx="2.8" ry="5" color="#0b0b0b" dominant-baseline="auto" fill="#a6473b"/></g></g></svg>
